<svg id="Calque_1" data-name="Calque 1" xmlns="http://www.w3.org/2000/svg" viewBox="0 0 45.7 39.34"><defs><style>.cls-1{fill:#fff;}</style></defs><title>pop</title><path class="cls-1" d="M983.48,531.86c-.12.6-.22,1.2-.39,1.78a9.12,9.12,0,0,1-1.86,3.45c.41.69.43,1,.13,1.28s-.65.25-1.24-.17a9.19,9.19,0,0,1-4.51,2.09c-.7.1-1.42.08-2.13.14a1.12,1.12,0,0,0-.62.23q-11,9.78-21.91,19.58l-.37.33a.74.74,0,0,1-1.14-.05c-.65-.64-1.29-1.31-2-2l-.37.35a5.43,5.43,0,0,1-9.24-2.95c0-.05-.05-.1-.07-.16v-1.34c.08-.29.15-.59.24-.89a5.67,5.67,0,0,1,1.51-2.43q6.71-6.68,13.38-13.38a3.95,3.95,0,1,0-5.33-5.83c-2.41,2.31-4.75,4.71-7.11,7.08-.48.47-.94,1-1.39,1.4l-1-1s.08-.11.15-.18c2.74-2.74,5.46-5.48,8.21-8.2a5.41,5.41,0,1,1,7.66,7.65c-1.94,2-3.89,3.9-5.83,5.84-2.6,2.6-5.21,5.19-7.8,7.8a4,4,0,0,0,1.06,6.44,4,4,0,0,0,4.88-1.23l-1.76-1.75c-.66-.66-.67-.88-.06-1.56l18.48-20.66.17-.19a5.67,5.67,0,0,0,1.18-1.39,6.07,6.07,0,0,0,.15-1.78,9.29,9.29,0,0,1,1.94-5l.24-.31c-.42-.67-.45-1-.12-1.28s.67-.25,1.13.12a26.45,26.45,0,0,1,2.4-1.38,9.45,9.45,0,0,1,13.25,7.43c0,.12.06.23.08.34Zm-3.32,4.19a8,8,0,0,0-11.25-11.22c.48.48,1,1,1.44,1.45a.73.73,0,1,1-1,1c-.48-.48-.94-1-1.41-1.48a8,8,0,0,0,.78,11.14,7.88,7.88,0,0,0,10.43.1l-3.28-3.22-4.28-4.3c-.38-.38-.43-.78-.16-1.1a.74.74,0,0,1,1.16.05c1.16,1.15,2.31,2.32,3.47,3.47Zm-18.15.82-16.08,18,4.19,4.19,18-16.08A13.6,13.6,0,0,1,962,536.87Zm2.88-3.22c-.58.65-1.12,1.23-1.64,1.85a.53.53,0,0,0,0,.46,11.7,11.7,0,0,0,5.83,5.81c.09.05.26.08.32,0,.64-.56,1.28-1.13,1.95-1.74A9.67,9.67,0,0,1,964.89,533.65Z" transform="translate(-937.79 -521.47)"/><path class="cls-1" d="M979.91,532a.74.74,0,0,1-.74.73.72.72,0,0,1-.7-.72.72.72,0,0,1,1.44,0Z" transform="translate(-937.79 -521.47)"/><path class="cls-1" d="M979.91,527.91a.74.74,0,0,1-.74.73.73.73,0,0,1-.7-.73.7.7,0,0,1,.74-.72A.72.72,0,0,1,979.91,527.91Z" transform="translate(-937.79 -521.47)"/></svg>