<svg id="Calque_1" data-name="Calque 1" xmlns="http://www.w3.org/2000/svg" viewBox="0 0 32 32"><defs><style>.cls-1{fill:#fff;}.cls-2{fill:#121214;}</style></defs><title>profil</title><path class="cls-1" d="M976,641a16,16,0,1,1,16-16A16,16,0,0,1,976,641Z" transform="translate(-960 -609)"/><path class="cls-2" d="M979.63,627.18a6.48,6.48,0,1,0-6.33-.18c-4.76.79-8.45,3.64-9.17,7.15a15,15,0,0,0,23.74,0C987.2,630.86,983.94,628.17,979.63,627.18Z" transform="translate(-960 -609)"/><path class="cls-1" d="M976,641a16,16,0,1,1,16-16A16,16,0,0,1,976,641Zm0-30a14,14,0,1,0,14,14A14,14,0,0,0,976,611Z" transform="translate(-960 -609)"/></svg>