<svg id="Calque_1" data-name="Calque 1" xmlns="http://www.w3.org/2000/svg" viewBox="0 0 285 47"><defs><style>.cls-1{fill:#fff;}.cls-2{fill:#222326;opacity:0.5;}</style></defs><title>recherche</title><rect class="cls-1" width="285" height="47" rx="23.5" ry="23.5"/><path class="cls-2" d="M850.6,523a12.9,12.9,0,0,0-12.88,12.88,12.76,12.76,0,0,0,2,6.9l-7,7.16a2.38,2.38,0,1,0,3.39,3.35l6.92-7a12.87,12.87,0,0,0,20.48-10.38A12.9,12.9,0,0,0,850.6,523Zm0,21a8.11,8.11,0,1,1,8.11-8.1A8.11,8.11,0,0,1,850.6,544Z" transform="translate(-818 -517)"/></svg>