<svg id="Calque_1" data-name="Calque 1" xmlns="http://www.w3.org/2000/svg" viewBox="0 0 48.73 50.37"><defs><style>.cls-1{fill:#fff;}</style></defs><title>rock</title><path class="cls-1" d="M981.1,514.8a.91.91,0,0,0,1.16.31,1.81,1.81,0,0,1,2,.59,2,2,0,0,1,.42,2.06c-.08.24-.18.44.09.65s.4.51.1.79-.55.11-.77-.12l-.18-.17-.9,1c.19.36.84.62.36,1.11s-.68-.11-1-.31l-.91,1.08c.22.35.8.61.35,1.08s-.66,0-1-.28a1.8,1.8,0,0,1-1.66.45c-.13,0-.35.14-.47.27l-10,10.16-8,8.12a3.17,3.17,0,0,1-.47.35l2.33,1.3.73.4a1.59,1.59,0,0,1-.13,2.87c-1.64.74-3.28,1.49-4.94,2.2a2,2,0,0,0-1,.92q-2.62,4.76-5.29,9.49a1.57,1.57,0,0,1-1.91.9,1.53,1.53,0,0,1-1.12-1.19c-.13-.52-.26-1-.41-1.7a30.21,30.21,0,0,0-2.35,2.54,2.85,2.85,0,0,0,.55,3.78,3,3,0,0,0,3.8.07A7.27,7.27,0,0,0,951,563l20.56-20.55a4.19,4.19,0,0,1,4.72-1.08,4.12,4.12,0,0,1,1.48,6.53c-1.09,1.21-2.29,2.34-3.45,3.5q-3.33,3.35-6.68,6.68c-.11.11-.23.28-.37.31a.77.77,0,0,1-.56-.11c-.1-.09-.09-.36,0-.52s.2-.25.31-.37l9.84-9.84a3.1,3.1,0,0,0,.8-3.56,3.17,3.17,0,0,0-4.91-1.3,8.09,8.09,0,0,0-.61.56q-10,10-20.06,20.08a5.65,5.65,0,0,1-2.9,1.82h-1.18a9.9,9.9,0,0,1-1.71-.8,3.84,3.84,0,0,1-.53-5.75c.69-.75,1.42-1.45,2.15-2.16a.68.68,0,0,0,.23-.77,14,14,0,0,1-.4-1.67.9.9,0,0,0-.57-.72q-4.9-2.47-9.8-5a1.59,1.59,0,0,1-1-2,1.68,1.68,0,0,1,1.21-1.11c3.74-1.18,7.47-2.42,11.23-3.54a3.15,3.15,0,0,0,2.22-1.91c1.23-2.78,2.6-5.5,3.9-8.25a1.59,1.59,0,0,1,1.57-1,1.54,1.54,0,0,1,1.5,1.37c.34,2,.66,4,1,6,0,.09,0,.18.07.35l.36-.3q8.54-8.4,17.06-16.8a.84.84,0,0,0,.25-.68,4.22,4.22,0,0,1,.39-1.36c-.11-.29-.55-.57-.13-.95s.67.07,1,.32l1.1-.91c-.21-.32-.69-.61-.25-1s.69.11,1,.33l1.07-.89c-.4-.33-.64-.68-.2-1.12Zm-21.42,28-3.18,3c-.4.38-.6.39-1,0l-1.5-1.5c-.52-.52-.53-.66,0-1.2,1.29-1.28,2.6-2.54,3.88-3.83a.79.79,0,0,0,.24-.58c-.34-2.2-.69-4.4-1.07-6.59a1.08,1.08,0,0,0-.45-.63c-.14-.09-.44,0-.62.11s-.21.28-.28.44q-2.25,4.69-4.48,9.4a1.19,1.19,0,0,1-.77.68c-2.4.75-4.8,1.52-7.2,2.29-1.82.58-3.65,1.15-5.47,1.76a.87.87,0,0,0-.53.58c0,.21.26.46.42.68a.57.57,0,0,0,.22.11c3.3,1.68,6.59,3.37,9.89,5a1.29,1.29,0,0,1,.75.94q.54,2.52,1.19,5a1,1,0,0,0,.54.6c.32.14.58-.1.73-.41,0-.09.1-.17.15-.26,1.78-3.2,3.58-6.4,5.35-9.61a1.7,1.7,0,0,1,.87-.8c1.71-.75,3.41-1.52,5.12-2.28.3-.14.67-.29.58-.68a1.17,1.17,0,0,0-.52-.68C961.59,543.84,960.59,543.31,959.68,542.8Zm-3.49,2,22-22.34-.87-.93-22.36,22Zm27.64-27.59a1.19,1.19,0,0,0-.65-1.11,1,1,0,0,0-1.19.18c-1.36,1.13-2.72,2.26-4.07,3.41-.4.34-.4.65,0,1s.79.79,1.19,1.18.7.39,1.07,0c1.12-1.33,2.24-2.66,3.34-4A3.2,3.2,0,0,0,983.83,517.2Z" transform="translate(-936.27 -514.8)"/><path class="cls-1" d="M940.85,547.11l4.37,2.23c.13.06.31.1.37.21s.24.47.17.58-.39.18-.6.23-.18-.08-.26-.12L940.39,548a.93.93,0,0,1-.65-.94c0-.48.38-.69.79-.82,1.49-.46,3-.94,4.45-1.39a.74.74,0,0,1,.61.11c.1.07.11.38,0,.52a.73.73,0,0,1-.43.27L941.27,547Z" transform="translate(-936.27 -514.8)"/><path class="cls-1" d="M953.9,549.87a.47.47,0,0,1-.68.48,1.4,1.4,0,0,1-.37-.32l-3.51-3.5c-.08-.08-.22-.16-.23-.25a3.65,3.65,0,0,1,0-.66c.23,0,.56-.1.69,0,1.34,1.29,2.65,2.62,4,4A1,1,0,0,1,953.9,549.87Z" transform="translate(-936.27 -514.8)"/><path class="cls-1" d="M951,551.39a1.35,1.35,0,1,1-1.37,1.31A1.33,1.33,0,0,1,951,551.39Zm0,1.92c.2-.27.39-.43.39-.58s-.24-.38-.35-.36a.6.6,0,0,0-.41.35C950.54,552.86,950.75,553,950.93,553.31Z" transform="translate(-936.27 -514.8)"/></svg>