<svg id="Calque_1" data-name="Calque 1" xmlns="http://www.w3.org/2000/svg" viewBox="0 0 48.43 48.43"><defs><style>.cls-1{fill:#fff;}</style></defs><title>classique</title><path class="cls-1" d="M984.85,517.24l-.7,1h.12c0,.26.16.58.07.78s-.45.13-.69.19l-.06-.13a3.88,3.88,0,0,1-.4.57c-.16.16-.39.39-.56.37-.59-.06-.83.36-1.14.68s-.53.58-.8.86a.75.75,0,0,0,1,.37c.81-.26,1.39.43,1.11,1.24a1.7,1.7,0,0,1-1.16,1.15.94.94,0,0,1-1-.18.84.84,0,0,1-.21-1c.21-.45,0-.66-.35-.89L978.46,524c.2.34.39.52.8.32a.87.87,0,0,1,1,.18,1,1,0,0,1,.2,1.06,1.74,1.74,0,0,1-1.16,1.15,1,1,0,0,1-1-.22.89.89,0,0,1-.16-1c.18-.36,0-.55-.29-.76l-8.19,8.76c.21.36.44.7.63,1.06a8.67,8.67,0,0,1,1,6.51,5.82,5.82,0,0,1-1.88,2.93l12,12-1.52,1.38,1.9,1.87c.11.11.26.22.29.36a.64.64,0,0,1-.11.49.51.51,0,0,1-.46.05,1.21,1.21,0,0,1-.39-.33l-13.7-13.71c-.12-.12-.22-.27-.33-.4a3.28,3.28,0,0,0-1.45,1.4c-.07.12-.13.25-.19.38a.89.89,0,0,1-.82.55.86.86,0,0,1-.82-.53c-.28-.53-.49-.61-1.06-.44a1.87,1.87,0,0,0-.48.2,7.33,7.33,0,0,0-3.49,5c-.15.84,0,1.08.79,1.42.39.16.72.37.71.83a.92.92,0,0,1-.65.84,3.53,3.53,0,0,0-1.87,2.15,11.69,11.69,0,0,1-2,3.67,6.83,6.83,0,0,1-4.46,2.52,1.29,1.29,0,0,0-.26.08h-1.8a.75.75,0,0,0-.12-.07,13.08,13.08,0,0,1-6.41-2.78,15.85,15.85,0,0,1-5.9-8.37c-.14-.51-.23-1-.34-1.55v-1.8c.08-.35.15-.7.24-1.05a7.24,7.24,0,0,1,3.81-4.65,17.9,17.9,0,0,1,2.23-1,3.69,3.69,0,0,0,2.19-2,.83.83,0,0,1,1.59.06c.38.9.59,1.06,1.55.86a7.31,7.31,0,0,0,5-3.47,2,2,0,0,0,.24-.62.68.68,0,0,0-.4-.89.85.85,0,0,1-.61-.86.9.9,0,0,1,.64-.85,3.77,3.77,0,0,0,1.76-1.66,2,2,0,0,1-.47-.27l-10.51-10.5c-.06-.07-.13-.13-.2-.2-.23-.24-.54-.49-.21-.83s.57,0,.79.16a6.46,6.46,0,0,1,1.09-.33,2.39,2.39,0,0,1,2.12.79q4.26,4.27,8.53,8.53a5.2,5.2,0,0,1,.35.44c3.5-3.35,7-2.43,10.67-.35l9.92-9.27v-.14a1.32,1.32,0,0,0-.48,0,1,1,0,0,1-1.22-.23,1.06,1.06,0,0,1,0-1.28,3,3,0,0,1,.89-.8.91.91,0,0,1,1.14.14,1,1,0,0,1,.18,1.1c-.1.24-.15.44.19.58l1.68-1.58c-.15-.29-.31-.39-.63-.24a.94.94,0,0,1-1.1-.18.87.87,0,0,1-.13-1.13,3.7,3.7,0,0,1,1-1,.87.87,0,0,1,1.09.11.89.89,0,0,1,.21,1.09c-.14.33-.08.53.34.72a4.53,4.53,0,0,1,.2-.59,5.22,5.22,0,0,1,.5-.86,2.18,2.18,0,0,1,.49-.35l-.13-.05c.06-.24,0-.59.19-.7s.48,0,.74,0l0,.18,1.08-.72h.57l1.32,1.32ZM953.22,535.7a1.31,1.31,0,0,1,.88,1.41,4.21,4.21,0,0,1-.58,1.67,8.3,8.3,0,0,1-5,3.49,2.08,2.08,0,0,1-2.81-1.17s-.05,0-.07-.05a5,5,0,0,1-3,2.4,16.12,16.12,0,0,0-2.89,1.57,5.73,5.73,0,0,0-2.49,5,12.16,12.16,0,0,0,3.2,7.72,32.22,32.22,0,0,0,7.34-9l3.73,3.71a31.92,31.92,0,0,0-9.06,7.34,13.12,13.12,0,0,0,6.47,3.12,6.21,6.21,0,0,0,5.47-1.57,8.92,8.92,0,0,0,2.23-3.53,5,5,0,0,1,2.51-3.16c-1.38-.87-1.65-1.54-1.2-3.09a8.88,8.88,0,0,1,.8-1.91,7.37,7.37,0,0,1,3.22-3.22,1.71,1.71,0,0,1,2.5.62l1.64-2-3.77-3.8-2.68,2.85-3.58-3.54,2.88-2.7L955.21,534Zm10.56,2.72,13.35-14.28-1-1.13-14.35,13.41Zm2.3-7.22a8.81,8.81,0,0,0-5.84-1.57,4.87,4.87,0,0,0-3.34,1.81l4.31,4.32Zm2.64,12.12c2.84-2.16,2.15-6.57.25-9.16L964.42,539Zm-.84,1.82,9.2,9.2.64-.59-9.12-9.12ZM955,532.39l.64-.89a4.43,4.43,0,0,1-.39-.31l-5.88-5.88c-.46-.45-.91-.92-1.38-1.36a1.31,1.31,0,0,0-1.67-.25Zm-9,22.54,4.07-2.71L948,550.1l-2.71,4.09Zm13.6-16.49-2.25,2.09,2.29,2.29,2.09-2.25Zm3.46,2,4.09,4.1.72-.5-4.22-4.24Zm-2.66-4-4.25-4.24-.49.72,4.1,4.1Zm22.05-17.27,1.46-2.2-.7-.81L981,517.72ZM944.72,555l-3.5,3.5.52.56,3.55-3.55Zm15.65-17.2,2.08,2.08.63-.67-2-2Zm17.33,17.31,1.55,1.55.65-.61-1.56-1.57Zm-33.06-32.85c.3.27.55.49.8.69a.37.37,0,0,0,.29.06l.86-.35A1.43,1.43,0,0,0,944.64,522.21Zm33.68.66-1-1-.51.48,1,1Zm.21-2.1-.53.5.94.93.5-.53Zm.68-.65.84.9.48-.53-.84-.81Zm1.95-.3.25-.27c-.62-.81-.74-.87-1-.48Zm-3.24-1.94.19.18.66-.68-.18-.18Zm1.79,7.37-.2-.19-.65.7.18.17Zm-4.1-5.06.18.18.68-.66-.18-.18Zm6.42,2.75-.15-.13a.82.82,0,0,0-.64.69l.12.12Z" transform="translate(-936.42 -515.35)"/><path class="cls-1" d="M954.12,542.75a6,6,0,0,1-.37,1.08.58.58,0,0,1-.55.12c-.26-.13-.51-.37-.32-.73,0-.11.21-.18.23-.29a.94.94,0,0,0,0-.62c-.16-.25-.44-.2-.65,0l-.34.33-2.94,2.94a1.38,1.38,0,0,1-1.83.3,1.34,1.34,0,0,1-.38-1.8,1.43,1.43,0,0,1,.08-.22c.1-.17.24-.48.34-.47a.9.9,0,0,1,.6.34c.08.12,0,.39-.08.58s-.24.4-.22.58c0,.39.48.45.83.11.74-.72,1.47-1.46,2.21-2.2.4-.4.78-.81,1.21-1.19a1.21,1.21,0,0,1,1.44-.19A1.31,1.31,0,0,1,954.12,542.75Z" transform="translate(-936.42 -515.35)"/><path class="cls-1" d="M957.47,546.07a1.35,1.35,0,0,1,1.33.78,1.27,1.27,0,0,1-.29,1.51l-3,3-.3.3c-.22.21-.31.46-.07.7s.48.15.71,0c.39-.33.67-.3.94.09a.42.42,0,0,1-.21.68l-.7.23a1.32,1.32,0,0,1-1.53-.54,1.31,1.31,0,0,1,.21-1.69c1-1,2.06-2.07,3.1-3.11a3.31,3.31,0,0,0,.26-.27.44.44,0,0,0,0-.67c-.22-.22-.45-.16-.67,0-.44.36-.79.34-1-.1-.07-.15,0-.51.1-.56A9.19,9.19,0,0,1,957.47,546.07Z" transform="translate(-936.42 -515.35)"/><path class="cls-1" d="M955.21,548.59c0,.41-.36.62-.65.46a1.64,1.64,0,0,1-.25-.21l-2.94-2.94c-.22-.23-.45-.47-.15-.76s.54-.1.76.13l2.94,2.94A3.22,3.22,0,0,1,955.21,548.59Z" transform="translate(-936.42 -515.35)"/></svg>