<svg id="Calque_1" data-name="Calque 1" xmlns="http://www.w3.org/2000/svg" xmlns:xlink="http://www.w3.org/1999/xlink" viewBox="0 0 285 148.35"><defs><style>.cls-1{fill:#1a1a1c;}.cls-2{fill:url(#Dégradé_sans_nom_10);}.cls-3{fill:url(#Dégradé_sans_nom_10-2);}</style><linearGradient id="Dégradé_sans_nom_10" x1="1032.31" y1="502.15" x2="1032.31" y2="566.74" gradientUnits="userSpaceOnUse"><stop offset="0" stop-color="blue"/><stop offset="1" stop-color="#00005a"/></linearGradient><linearGradient id="Dégradé_sans_nom_10-2" x1="874.71" y1="518.27" x2="874.71" y2="605.66" xlink:href="#Dégradé_sans_nom_10"/></defs><title>logo</title><path class="cls-1" d="M1098.16,501a2.8,2.8,0,0,0-2.8,2.79v8.78a14.71,14.71,0,0,0-21.35,3.31,14.71,14.71,0,0,0-20.81-2.55V513a2.79,2.79,0,0,0-5.58,0v11.18a9.15,9.15,0,0,1-18.29,0V513a2.8,2.8,0,0,0-5.59,0V513a14.67,14.67,0,0,0-18-1,14.21,14.21,0,0,0-23.93-7l-20.12,20.12a14.21,14.21,0,0,0,7.9,24.1l-2.31,2.31a14.23,14.23,0,0,0,0,20.11A14.63,14.63,0,0,0,977.8,576c.4,0,.81,0,1.22,0h37.61a2.63,2.63,0,0,0,1,0h18.28a2.42,2.42,0,0,0,.47,0c.35,0,.7,0,1.06,0a14.73,14.73,0,0,0,12.19-6.47,14.72,14.72,0,0,0,24.38,0,14.71,14.71,0,0,0,21.33,3.28v.4a2.8,2.8,0,0,0,5.59,0V503.82A2.79,2.79,0,0,0,1098.16,501Zm-11.94,14a9.14,9.14,0,1,1-9.14,9.14A9.15,9.15,0,0,1,1086.22,515Zm-72.13,0a9.14,9.14,0,1,1-9.14,9.14A9.15,9.15,0,0,1,1014.09,515Zm-8.16,38.31,1.65-1.78a14.22,14.22,0,0,0,3.82-12.91,14.87,14.87,0,0,0,2.69.25h.26v31.5h-8.23a14.66,14.66,0,0,0-.19-17.05Zm-6.21-25.93,0,.11-.11,0Zm-21.07,43a9.29,9.29,0,0,1-7.39-2.65,8.64,8.64,0,0,1,0-12.21l8.81-8.81a2.79,2.79,0,0,0-3.52-4.3,8.67,8.67,0,0,1-10.88-1.09,8.68,8.68,0,0,1,0-12.21L985.79,509A8.63,8.63,0,0,1,998,521.2L989.19,530a2.8,2.8,0,0,0,3.52,4.31,8.63,8.63,0,0,1,10.88,13.3.46.46,0,0,0-.07.07l-3.41,3.67a2.8,2.8,0,0,0,.14,3.95l.09.07a9.05,9.05,0,0,1,2.83,6.6,9.17,9.17,0,0,1-5.5,8.38H979.08A3.17,3.17,0,0,0,978.65,570.38Zm58.81,0a9.14,9.14,0,1,1,9.14-9.14A9.16,9.16,0,0,1,1037.46,570.36Zm33.52-9.14a9.14,9.14,0,0,1-18.28,0V550.05a2.8,2.8,0,1,0-5.59,0v.06a14.72,14.72,0,0,0-21.19,20.25h-6v-32.7a14.77,14.77,0,0,0,6.35-5.26,14.72,14.72,0,0,0,21.34,3.28v.4a2.79,2.79,0,1,0,5.58,0V524.9a9.15,9.15,0,0,1,18.29,0v11.18a2.8,2.8,0,0,0,5.59,0v-.4a14.69,14.69,0,0,0,18.28,0v14a14.68,14.68,0,0,0-18.79.43v-.06a2.8,2.8,0,1,0-5.59,0Zm15.24,9.14a9.14,9.14,0,1,1,9.14-9.14A9.15,9.15,0,0,1,1086.22,570.36Z" transform="translate(-819 -466.23)"/><path class="cls-2" d="M1101.21,496.46a2.79,2.79,0,0,0-2.8,2.79V508a14.72,14.72,0,0,0-21.36,3.31,14.7,14.7,0,0,0-20.8-2.55v-.4a2.8,2.8,0,0,0-5.59,0v11.18a9.14,9.14,0,0,1-18.28,0V508.39a2.8,2.8,0,0,0-5.59,0v.06a14.72,14.72,0,0,0-18-1,14.06,14.06,0,0,0-3.81-6.95,14.25,14.25,0,0,0-20.12,0l-20.11,20.11a14.2,14.2,0,0,0,7.9,24.1L970.36,547a14.23,14.23,0,0,0,0,20.11,14.61,14.61,0,0,0,10.49,4.32c.4,0,.81,0,1.22,0h37.61a2.58,2.58,0,0,0,1,0H1039a3.57,3.57,0,0,0,.47,0c.35,0,.7,0,1.06,0a14.75,14.75,0,0,0,12.19-6.47,14.72,14.72,0,0,0,24.38,0,14.71,14.71,0,0,0,21.33,3.28v.4a2.8,2.8,0,0,0,5.59,0V499.25A2.79,2.79,0,0,0,1101.21,496.46Zm-11.94,14a9.14,9.14,0,1,1-9.14,9.14A9.15,9.15,0,0,1,1089.27,510.43Zm-72.13,0a9.14,9.14,0,1,1-9.14,9.14A9.15,9.15,0,0,1,1017.14,510.43ZM1009,548.74l1.65-1.78a14.2,14.2,0,0,0,3.83-12.91,14.87,14.87,0,0,0,2.69.25h.25v31.5h-8.22a14.64,14.64,0,0,0-.2-17Zm-6.2-25.93,0,.11-.12,0Zm-21.07,43a9.24,9.24,0,0,1-7.39-2.64,8.64,8.64,0,0,1,0-12.21l8.8-8.81a2.79,2.79,0,0,0-3.51-4.3,8.67,8.67,0,0,1-10.88-1.09,8.68,8.68,0,0,1,0-12.21l20.11-20.12a8.64,8.64,0,0,1,12.22,12.21l-8.81,8.81a2.8,2.8,0,0,0,3.52,4.31,8.63,8.63,0,0,1,10.87,13.3.46.46,0,0,1-.07.07l-3.4,3.67a2.8,2.8,0,0,0,.14,4l.09.06a9.09,9.09,0,0,1,2.83,6.61,9.18,9.18,0,0,1-5.5,8.38h-19Zm58.81,0a9.14,9.14,0,1,1,9.14-9.14A9.15,9.15,0,0,1,1040.51,565.79Zm33.52-9.14a9.15,9.15,0,0,1-18.29,0V545.47a2.79,2.79,0,1,0-5.58,0v.06A14.72,14.72,0,0,0,1029,565.79h-6v-32.7a14.88,14.88,0,0,0,6.35-5.26,14.71,14.71,0,0,0,21.33,3.28v.4a2.8,2.8,0,0,0,5.59,0V520.33a9.15,9.15,0,0,1,18.29,0v11.18a2.8,2.8,0,0,0,5.59,0v-.4a14.69,14.69,0,0,0,18.28,0v14a14.7,14.7,0,0,0-18.79.42v-.06a2.8,2.8,0,0,0-5.59,0Zm15.24,9.14a9.14,9.14,0,1,1,9.14-9.14A9.15,9.15,0,0,1,1089.27,565.79Z" transform="translate(-819 -466.23)"/><path class="cls-1" d="M911.52,569.31a26.27,26.27,0,0,0-14.68-44.51l4.28-4.28a26.31,26.31,0,0,0-37.21-37.21l-37.22,37.21a26.27,26.27,0,0,0,14.62,44.58L837,569.38a26.34,26.34,0,0,0,0,37.21,27,27,0,0,0,19.41,8c.75,0,1.5,0,2.25-.08h33.88a5.31,5.31,0,0,0,.81-.07,4.8,4.8,0,0,0,.85.07,5.08,5.08,0,0,0,1.82-.33,27.24,27.24,0,0,0,12.42-41.56Zm-18.39,34.87a5.25,5.25,0,0,0-.56,0H858.8c-.25,0-.51,0-.78,0a17.13,17.13,0,0,1-13.68-4.89,16,16,0,0,1,0-22.59l16.29-16.29a5.16,5.16,0,0,0-6.5-8A16,16,0,0,1,834,527.83l37.21-37.21a16,16,0,0,1,22.6,22.59L877.52,529.5a5.17,5.17,0,0,0,6.5,8,16,16,0,0,1,20.12,24.6l-.13.14-6.3,6.79a5.16,5.16,0,0,0,.27,7.3l.16.13a16.74,16.74,0,0,1,5.23,12.22A17,17,0,0,1,893.13,604.18Z" transform="translate(-819 -466.23)"/><path class="cls-3" d="M917.16,559.91a26.27,26.27,0,0,0-14.69-44.51l4.28-4.28a26.31,26.31,0,0,0-37.21-37.21l-37.21,37.21A26.27,26.27,0,0,0,847,555.7L842.67,560a26.34,26.34,0,0,0,0,37.21,27.09,27.09,0,0,0,19.41,8c.74,0,1.5,0,2.25-.09h33.88A5.54,5.54,0,0,0,899,605a4.8,4.8,0,0,0,.85.08,5.31,5.31,0,0,0,1.82-.33,27.25,27.25,0,0,0,12.42-41.57Zm-18.39,34.88a5.25,5.25,0,0,0-.56,0H864.44a7.12,7.12,0,0,0-.79,0A17.19,17.19,0,0,1,850,589.89a16,16,0,0,1,0-22.59L866.27,551a5.17,5.17,0,0,0-6.51-8,16,16,0,0,1-20.12-24.61l37.21-37.21a16,16,0,1,1,22.6,22.59l-16.3,16.29a5.17,5.17,0,0,0,6.51,8,16,16,0,0,1,20.12,24.61l-.13.13-6.3,6.79a5.16,5.16,0,0,0,.27,7.31,1.67,1.67,0,0,1,.16.12A16.74,16.74,0,0,1,909,579.25,17,17,0,0,1,898.77,594.79Z" transform="translate(-819 -466.23)"/></svg>