<svg id="Calque_1" data-name="Calque 1" xmlns="http://www.w3.org/2000/svg" viewBox="0 0 43.21 44.73"><defs><style>.cls-1{fill:#fff;}</style></defs><title>rap</title><path class="cls-1" d="M948.67,562.09c0-1,0-1.89,0-2.83a.41.41,0,0,0-.24-.29,3.75,3.75,0,0,1-2.73-3.94V521.46a3.76,3.76,0,0,1,3.14-4.06s0,0,.07,0h23.41a5.79,5.79,0,0,1,.71.21,3.74,3.74,0,0,1,2.5,3.49c0,.19,0,.38,0,.57v33.18c0,2.27-.68,3.29-2.77,4.17a.39.39,0,0,0-.2.28c0,.94,0,1.88,0,2.83h-4.55v-3H953.21v3Zm25.39-23.9V521.33a2.27,2.27,0,0,0-2.5-2.49h-22a2.29,2.29,0,0,0-2,.95,2.63,2.63,0,0,0-.42,1.62V555c0,.15,0,.29,0,.44a2.22,2.22,0,0,0,2.27,2.14h22.28a2.23,2.23,0,0,0,1.65-.68,2.49,2.49,0,0,0,.65-1.84Q974.05,546.64,974.06,538.19Zm-22.39,20.95h-1.43v1.44h1.43Zm19.38,0h-1.44v1.43h1.44Z" transform="translate(-939.03 -517.36)"/><path class="cls-1" d="M981.6,536.69a3.71,3.71,0,0,1-.39.65c-.68.71-1.39,1.41-2.09,2.1a.74.74,0,0,1-1.12,0,.72.72,0,0,1,.06-1.09l2.12-2.13a.69.69,0,0,1,.87-.18A2.3,2.3,0,0,1,981.6,536.69Z" transform="translate(-939.03 -517.36)"/><path class="cls-1" d="M981.58,551.7c-.16.2-.29.49-.5.58a.85.85,0,0,1-.75-.07c-.83-.75-1.61-1.55-2.38-2.36a.69.69,0,0,1,.06-1,.72.72,0,0,1,1,0c.78.75,1.55,1.52,2.31,2.3A2.67,2.67,0,0,1,981.58,551.7Z" transform="translate(-939.03 -517.36)"/><path class="cls-1" d="M980.08,543.46h1.39a.72.72,0,0,1,.77.72.71.71,0,0,1-.73.76q-1.49,0-3,0a.74.74,0,1,1,.05-1.48Z" transform="translate(-939.03 -517.36)"/><path class="cls-1" d="M940.43,552.47c-.19-.15-.48-.28-.57-.49a.88.88,0,0,1,.07-.75c.75-.82,1.55-1.61,2.35-2.38a.71.71,0,0,1,1,0,.7.7,0,0,1,.07,1c-.77.8-1.56,1.59-2.36,2.37A2,2,0,0,1,940.43,552.47Z" transform="translate(-939.03 -517.36)"/><path class="cls-1" d="M943.54,539c-.15.18-.27.47-.48.56a.87.87,0,0,1-.76-.06c-.82-.76-1.6-1.55-2.37-2.36a.68.68,0,0,1,.06-.95.7.7,0,0,1,1-.05c.8.76,1.57,1.55,2.34,2.34A1.86,1.86,0,0,1,943.54,539Z" transform="translate(-939.03 -517.36)"/><path class="cls-1" d="M941.24,543.46h1.44a.74.74,0,1,1,0,1.48c-1,0-2,0-3,0a.72.72,0,0,1-.73-.77.71.71,0,0,1,.77-.71Z" transform="translate(-939.03 -517.36)"/><path class="cls-1" d="M972.56,544.17a11.93,11.93,0,1,1-12-11.89A11.94,11.94,0,0,1,972.56,544.17Zm-1.49.07a10.44,10.44,0,1,0-10.49,10.4A10.42,10.42,0,0,0,971.07,544.24Z" transform="translate(-939.03 -517.36)"/><path class="cls-1" d="M960.63,520.33a5.23,5.23,0,1,1-5.22,5.24A5.26,5.26,0,0,1,960.63,520.33Zm-.1,8.95a3.73,3.73,0,1,0-3.62-3.82A3.73,3.73,0,0,0,960.53,529.28Z" transform="translate(-939.03 -517.36)"/><path class="cls-1" d="M950.17,521.8h-1.44v-1.45h1.44Z" transform="translate(-939.03 -517.36)"/><path class="cls-1" d="M972.54,520.36v1.44h-1.43v-1.44Z" transform="translate(-939.03 -517.36)"/><path class="cls-1" d="M948.74,554.66h1.42v1.44h-1.42Z" transform="translate(-939.03 -517.36)"/><path class="cls-1" d="M971.1,556.11v-1.45h1.43v1.45Z" transform="translate(-939.03 -517.36)"/><path class="cls-1" d="M960.63,553.15a8.95,8.95,0,1,1,8.94-8.95A9,9,0,0,1,960.63,553.15Zm0-1.5a7.45,7.45,0,1,0-7.43-7.5A7.44,7.44,0,0,0,960.62,551.65Z" transform="translate(-939.03 -517.36)"/><path class="cls-1" d="M960.65,527.78a2.23,2.23,0,1,1,2.22-2.22A2.23,2.23,0,0,1,960.65,527.78Zm0-1.49a.72.72,0,0,0,.72-.76.74.74,0,0,0-1.47,0A.72.72,0,0,0,960.65,526.29Z" transform="translate(-939.03 -517.36)"/><path class="cls-1" d="M960.66,547.93a3.76,3.76,0,0,1-3.75-3.75,3.73,3.73,0,0,1,7.46,0A3.76,3.76,0,0,1,960.66,547.93Zm0-6a2.21,2.21,0,0,0-2.22,2.22,2.24,2.24,0,1,0,4.47,0A2.22,2.22,0,0,0,960.62,542Z" transform="translate(-939.03 -517.36)"/></svg>